Coordinates
version=1
nRows=13
nColumns=40
inDegrees=yes

Units are S.I. units (second, meters, Newtons, ...)
Angles are in degrees.

endheader
time	pelvis_tilt	pelvis_list	pelvis_rotation	pelvis_tx	pelvis_ty	pelvis_tz	hip_flexion_r	hip_adduction_r	hip_rotation_r	knee_angle_r	knee_angle_r_beta	ankle_angle_r	subtalar_angle_r	mtp_angle_r	hip_flexion_l	hip_adduction_l	hip_rotation_l	knee_angle_l	knee_angle_l_beta	ankle_angle_l	subtalar_angle_l	mtp_angle_l	lumbar_extension	lumbar_bending	lumbar_rotation	arm_flex_r	arm_add_r	arm_rot_r	elbow_flex_r	pro_sup_r	wrist_flex_r	wrist_dev_r	arm_flex_l	arm_add_l	arm_rot_l	elbow_flex_l	pro_sup_l	wrist_flex_l	wrist_dev_l
     25.76000000	     -2.26206740	     -3.96985922	     -2.18814030	      1.01305429	      0.91698957	      0.40971645	     25.49824005	     -8.99580628	     -3.35106068	     69.50594358	     69.50594358	     -3.84619536	    -19.71261975	     20.34745320	     19.47354423	     -0.36683703	      0.98606150	     32.81202072	     32.81202072	     18.58689679	    -17.55618720	      5.80179836	    -11.40141730	      6.57040856	      3.74461380	     15.28343722	    -13.14783094	    -14.21660340	     24.97530708	     46.03614886	      0.00000000	      0.00000000	     18.18639727	    -12.53011180	     15.15122624	     35.77060553	     45.33886723	      0.00000000	      0.00000000
     25.78078571	     -2.48160294	     -3.88624550	     -2.76895075	      1.01323148	      0.91560841	      0.40875463	     26.81854540	     -8.52507143	     -2.70473482	     69.88503766	     69.88503766	     -1.44192465	    -19.67200349	     20.29266239	     19.60671790	     -0.22852230	      0.76590296	     33.29500157	     33.29500157	     18.97588665	    -18.04157433	      6.02305726	    -11.12416113	      6.72210280	      3.52746642	     12.19869147	    -12.94947755	    -14.07138767	     23.27492589	     46.08401901	      0.00000000	      0.00000000	     20.01350560	    -12.64572419	     14.97511893	     36.69205283	     45.39377104	      0.00000000	      0.00000000
     25.80157143	     -2.50360691	     -3.86389826	     -3.43980250	      1.01357327	      0.91484783	      0.40812708	     27.81390247	     -7.91795394	     -2.05945363	     69.86334467	     69.86334467	      0.89665475	    -19.62485810	     20.01928535	     19.39685594	     -0.24532291	      0.31053475	     33.62071593	     33.62071593	     19.51395512	    -18.17472325	      6.36942526	    -11.15554043	      6.94568354	      3.49399952	      8.99088135	    -12.79543950	    -13.91604000	     21.78131029	     46.12127464	      0.00000000	      0.00000000	     21.90750719	    -12.82426729	     14.69236971	     38.01850920	     45.46448202	      0.00000000	      0.00000000
     25.82235714	     -2.54654730	     -3.87661257	     -4.13554249	      1.01380167	      0.91447158	      0.40775924	     28.74118756	     -7.26512910	     -1.47309390	     69.40132692	     69.40132692	      3.00567303	    -19.56514113	     19.55995195	     19.11242110	     -0.32560352	     -0.18311711	     33.76051155	     33.76051155	     19.98295382	    -18.25849430	      6.78100426	    -11.22088646	      7.17936792	      3.38884382	      5.81362342	    -12.60854679	    -13.78907799	     20.57706517	     46.14720769	      0.00000000	      0.00000000	     23.69849611	    -13.15496453	     14.30949099	     39.48752918	     45.54479351	      0.00000000	      0.00000000
     25.84314286	     -2.62498865	     -3.92416903	     -4.89792802	      1.01401050	      0.91455727	      0.40779615	     29.54977838	     -6.59143391	     -0.99058918	     68.37534437	     68.37534437	      4.89305434	    -19.50282392	     18.92500296	     18.73068053	     -0.48210700	     -0.72847720	     33.67296183	     33.67296183	     20.45732736	    -18.28150064	      7.29125917	    -11.27775614	      7.41831594	      3.41238567	      2.67066215	    -12.42290584	    -13.66584308	     19.73323356	     46.16125795	      0.00000000	      0.00000000	     25.37976714	    -13.56979358	     13.76300861	     41.27964822	     45.64420829	      0.00000000	      0.00000000
     25.86392857	     -2.79141500	     -4.00650008	     -5.63672269	      1.01404484	      0.91515243	      0.40821528	     30.30849336	     -5.89187544	     -0.60543816	     66.76872156	     66.76872156	      6.44998425	    -19.41304828	     18.36421111	     18.30411697	     -0.71160535	     -1.28424970	     33.29215553	     33.29215553	     20.65034853	    -18.29121901	      7.52855184	    -11.19828894	      7.67071829	      2.76682191	      0.12455839	    -12.11818169	    -13.66386488	     19.00526034	     46.17418583	      0.00000000	      0.00000000	     26.92327480	    -14.36587443	     13.28494334	     42.32143143	     45.72116859	      0.00000000	      0.00000000
     25.88471429	     -2.94667052	     -4.11880110	     -6.47916280	      1.01399492	      0.91636861	      0.40914563	     30.79444095	     -5.24214226	     -0.37676749	     64.37130125	     64.37130125	      7.06547356	    -19.30382003	     15.67460397	     17.70774933	     -1.02106926	     -1.96684508	     32.64373771	     32.64373771	     20.88544436	    -18.20664757	      8.10957390	    -11.35897578	      7.90531145	      2.76480015	     -3.28074859	    -11.94634860	    -13.42918605	     20.56894554	     46.11612603	      0.00000000	      0.00000000	     27.63192860	    -15.01968671	     11.29111840	     46.42348765	     45.98964835	      0.00000000	      0.00000000
     25.90550000	     -3.18367295	     -4.27462186	     -7.33435014	      1.01377629	      0.91807258	      0.41063613	     31.19752350	     -4.46380035	     -0.13384508	     61.39839009	     61.39839009	      7.87622288	    -19.12583658	     14.91118050	     17.04221558	     -1.42403790	     -2.68326829	     31.69122354	     31.69122354	     20.84752524	    -18.07747810	      8.22907426	    -11.31851331	      8.12983672	      2.76769760	     -5.55797409	    -11.73036396	    -13.33559288	     20.00130848	     46.12529558	      0.00000000	      0.00000000	     29.17138740	    -15.57285366	     10.55178404	     47.88564756	     46.09434512	      0.00000000	      0.00000000
     25.92628571	     -3.58343701	     -4.40789237	     -8.23641395	      1.01337076	      0.91985589	      0.41253692	     31.45454990	     -3.83991829	     -0.15289079	     57.59363971	     57.59363971	      7.32579075	    -18.85620380	     10.67762896	     16.43719865	     -1.87496559	     -3.57344917	     30.49054344	     30.49054344	     20.39036124	    -17.94428578	      7.43563080	    -11.20218901	      8.28359662	      2.60597634	     -8.14526943	    -11.46617841	    -13.28071848	     21.46092687	     46.08193952	      0.00000000	      0.00000000	     29.71840354	    -16.30294013	      8.23400738	     51.68072816	     46.36767308	      0.00000000	      0.00000000
     25.94707143	     -3.95334788	     -4.59979759	     -9.09385765	      1.01290971	      0.92211103	      0.41484491	     31.33455916	     -3.16782053	     -0.28603149	     53.05835478	     53.05835478	      6.27156946	    -18.47433251	      5.76563228	     15.64485205	     -2.38110134	     -4.41268705	     29.00837783	     29.00837783	     19.73493532	    -17.74452427	      6.60773663	    -11.10215611	      8.49270557	      2.08124586	     -9.92669309	    -11.30474107	    -12.80677931	     22.50496720	     46.05856090	      0.00000000	      0.00000000	     30.27869505	    -17.17784041	      5.99825664	     54.39600487	     46.62002285	      0.00000000	      0.00000000
     25.96785714	     -4.39997416	     -4.76485163	     -9.99035260	      1.01234422	      0.92430369	      0.41752079	     31.07546234	     -2.50559809	     -0.48151445	     48.03982204	     48.03982204	      5.18228145	    -17.62484209	      1.66162229	     14.89793864	     -2.88730627	     -5.34183465	     27.47307723	     27.47307723	     19.14952379	    -17.46061612	      5.91859691	    -10.92854350	      8.63929697	      1.87944003	    -11.59666094	    -11.10324595	    -12.57477522	     23.56513718	     46.04676430	      0.00000000	      0.00000000	     30.94161967	    -17.94612840	      4.23856958	     57.41346467	     46.82803630	      0.00000000	      0.00000000
     25.98864286	     -4.92980964	     -4.96197793	    -10.85439784	      1.01167026	      0.92631356	      0.42047497	     30.78206558	     -1.79925237	     -0.78285931	     42.92588441	     42.92588441	      5.28029141	    -15.46192575	      1.55215285	     14.28123688	     -3.42471429	     -6.17118018	     26.05200878	     26.05200878	     18.92031050	    -17.07585087	      6.13023511	    -10.60231891	      8.83707052	      1.97052694	    -12.70827923	    -10.86090055	    -12.59398864	     23.47211189	     46.04701230	      0.00000000	      0.00000000	     32.31742022	    -18.57200388	      3.69826022	     58.67504246	     46.90172267	      0.00000000	      0.00000000
     26.00942857	     -5.27113962	     -4.98594229	    -11.73663618	      1.01119747	      0.92811765	      0.42355087	     29.96900931	     -1.45968913	     -1.44913839	     37.24254916	     37.24254916	      3.93372868	    -12.68099132	     -2.96118844	     13.36180228	     -3.76104968	     -7.26559662	     24.39351963	     24.39351963	     18.02462532	    -16.72250909	      4.53280052	    -10.64046241	      8.80057543	      1.65135203	    -14.18083965	    -10.66032945	    -13.00758789	     26.18651781	     45.99395969	      0.00000000	      0.00000000	     32.20277905	    -19.40683262	      0.94267785	     63.60759496	     47.20081016	      0.00000000	      0.00000000
